<svg width="105" height="20" viewBox="0 0 105 20" fill="none" xmlns="http://www.w3.org/2000/svg">
<g clip-path="url(#clip0_900_22783)">
<path fill-rule="evenodd" clip-rule="evenodd" d="M94.9494 0.00368366H103.529C103.895 -0.00714472 104.203 0.285221 104.211 0.656995C104.211 0.667824 104.211 0.678652 104.211 0.68948V19.3143C104.221 19.6824 103.931 19.9929 103.561 20.0001C103.55 20.0001 103.539 20.0001 103.529 20.0001H94.9494C94.5833 20.0109 94.2746 19.7185 94.2674 19.3468C94.2674 19.3359 94.2674 19.3251 94.2674 19.3143V0.68948C94.2279 0.350192 94.472 0.0433877 94.8094 0.00368366C94.8561 7.41983e-05 94.9027 7.41983e-05 94.9494 0.00368366Z" fill="white"/>
<path fill-rule="evenodd" clip-rule="evenodd" d="M89.8806 20.0001H63.0733C57.5811 19.9387 53.1767 15.416 53.2377 9.89357C53.2951 4.45773 57.6637 0.0614134 63.0733 0.00366211H82.4716C82.8342 0.00366211 83.1321 0.296028 83.1357 0.660583C83.1357 0.772476 83.107 0.88437 83.0531 0.985434L82.3711 2.25957C82.2778 2.44365 82.0875 2.55916 81.8829 2.55555H69.8972C69.2331 2.66022 68.5834 2.82626 67.948 3.04643C67.3988 3.28105 66.8747 3.57702 66.3865 3.92714C63.0661 6.40323 62.3733 11.1172 64.8394 14.4559C65.3024 15.0804 65.8552 15.629 66.487 16.0838C66.6809 16.1812 66.7814 16.2787 66.9752 16.3798C67.4777 16.6505 67.9982 16.8779 68.5367 17.0656H68.6336C68.8562 17.145 69.0859 17.2099 69.3156 17.2605H69.7033C69.9977 17.2605 70.2848 17.3579 70.5792 17.3579H81.9834V9.31606C81.9727 8.9479 82.2634 8.63748 82.6332 8.63026C82.6439 8.63026 82.6547 8.63026 82.6655 8.63026H91.2447C91.6108 8.61944 91.9195 8.9118 91.9267 9.28358C91.9267 9.2944 91.9267 9.30523 91.9267 9.31606V19.2168C91.9375 19.585 91.6467 19.8954 91.277 19.9026C91.2662 19.9026 91.2555 19.9026 91.2447 19.9026H89.8806" fill="white"/>
<path fill-rule="evenodd" clip-rule="evenodd" d="M41.3346 0.0037093H49.9138C50.28 -0.00711907 50.5887 0.285247 50.5959 0.657021C50.5959 0.667849 50.5959 0.678678 50.5959 0.689506V19.3143C50.6066 19.6825 50.3159 19.9929 49.9461 20.0001C49.9354 20.0001 49.9246 20.0001 49.9138 20.0001H41.3346C40.9685 20.0109 40.6598 19.7186 40.6526 19.3468C40.6526 19.336 40.6526 19.3251 40.6526 19.3143V0.689506C40.7495 0.19862 40.9469 0.0037093 41.3346 0.0037093Z" fill="white"/>
<path fill-rule="evenodd" clip-rule="evenodd" d="M28.5591 0.0612793H0.804077C0.358963 0.0612793 0 0.422225 0 0.869798V19.1697C0 19.6137 0.358963 19.9783 0.804077 19.9783H28.5591C34.0297 19.9783 38.4629 15.5206 38.4629 10.0198C38.4629 4.51896 34.0297 0.0612793 28.5591 0.0612793ZM21.0963 17.5238H9.90379V2.51571H21.0963C25.2171 2.51571 28.5591 5.87611 28.5591 10.0198C28.5591 14.1634 25.2171 17.5238 21.0963 17.5238Z" fill="white"/>
</g>
<defs>
<clipPath id="clip0_900_22783">
<rect width="104.211" height="20" fill="white"/>
</clipPath>
</defs>
</svg>
