<?xml version="1.0" standalone="no"?>
<!DOCTYPE svg PUBLIC "-//W3C//DTD SVG 20010904//EN"
 "http://www.w3.org/TR/2001/REC-SVG-20010904/DTD/svg10.dtd">
<svg version="1.0" xmlns="http://www.w3.org/2000/svg"
 width="512.000000pt" height="512.000000pt" viewBox="0 0 512.000000 512.000000"
 preserveAspectRatio="xMidYMid meet">
<metadata>
Created by potrace 1.14, written by Peter Selinger 2001-2017
</metadata>
<g transform="translate(0.000000,512.000000) scale(0.100000,-0.100000)"
fill="#000000" stroke="none">
<path d="M795 2890 c-74 -29 -120 -72 -157 -148 -32 -64 -33 -72 -33 -182 0
-103 3 -121 26 -171 52 -111 139 -169 265 -177 154 -10 272 73 312 221 l10 37
-48 0 c-47 0 -49 -1 -60 -36 -16 -46 -66 -103 -107 -120 -46 -20 -131 -17
-179 5 -49 22 -97 78 -113 130 -14 50 -14 173 1 222 14 50 72 118 115 135 42
18 134 18 176 0 41 -17 91 -74 107 -120 11 -35 13 -36 60 -36 l48 0 -10 38
c-24 87 -70 149 -140 187 -71 39 -196 46 -273 15z"/>
<path d="M2245 2886 c-54 -25 -97 -68 -124 -125 l-16 -34 -5 84 -5 84 -45 0
-45 0 -3 -447 -2 -448 50 0 50 0 0 203 0 202 19 -40 c75 -166 283 -208 412
-83 129 125 137 401 15 545 -68 80 -201 106 -301 59z m176 -81 c37 -20 85 -77
100 -122 7 -21 13 -76 13 -123 0 -100 -26 -172 -80 -220 -61 -53 -184 -55
-256 -4 -137 96 -127 386 15 461 67 35 150 38 208 8z"/>
<path d="M2964 2889 c-49 -23 -94 -69 -123 -123 l-20 -39 -3 84 -3 84 -45 0
-45 0 -3 -447 -2 -448 50 0 50 0 0 198 0 197 30 -51 c51 -90 124 -134 220
-134 75 0 121 20 182 80 46 47 60 68 77 124 59 190 -5 402 -140 470 -67 33
-163 35 -225 5z m134 -71 c60 -15 122 -76 141 -138 7 -25 13 -82 13 -127 0
-101 -30 -175 -87 -219 -32 -24 -49 -29 -110 -32 -58 -3 -80 0 -113 17 -78 40
-122 126 -122 240 0 157 83 259 218 270 7 1 34 -4 60 -11z"/>
<path d="M3620 2891 c-101 -41 -168 -130 -190 -252 -41 -226 84 -414 285 -427
140 -9 249 50 301 163 33 70 32 75 -20 75 -42 0 -46 -3 -68 -42 -13 -22 -40
-55 -61 -72 -34 -27 -48 -31 -110 -34 -65 -3 -77 0 -122 27 -55 32 -97 95
-109 164 l-7 37 259 0 c226 0 261 2 266 16 10 26 -13 151 -36 202 -30 63 -97
126 -155 146 -63 22 -176 20 -233 -3z m197 -82 c58 -22 105 -82 122 -158 l9
-41 -214 0 -214 0 6 28 c10 40 49 115 70 133 53 46 154 64 221 38z"/>
<path d="M1307 2894 c-4 -4 -7 -102 -7 -219 0 -229 9 -293 54 -364 57 -90 173
-125 289 -85 52 18 122 80 142 127 14 31 14 29 15 -45 l0 -78 50 0 50 0 -2
333 -3 332 -45 0 -45 0 -5 -226 -5 -226 -30 -48 c-39 -62 -98 -95 -171 -95
-61 0 -100 13 -132 43 -54 50 -57 66 -62 317 l-5 235 -40 3 c-23 2 -44 0 -48
-4z"/>
<path d="M4137 2894 c-4 -4 -7 -155 -7 -336 l0 -328 49 0 50 0 3 213 c3 205 4
213 28 257 35 62 91 92 187 98 l74 5 -3 46 -3 46 -50 -3 c-27 -1 -65 -7 -84
-13 -44 -15 -115 -80 -132 -122 -14 -31 -14 -30 -19 53 l-5 85 -40 3 c-23 2
-44 0 -48 -4z"/>
</g>
</svg>
